<svg width="274" height="322" viewBox="0 0 274 322" fill="none" xmlns="http://www.w3.org/2000/svg">
<rect y="24" width="274" height="274" rx="49" fill="#DC2626"/>
<mask id="path-2-outside-1_23_2" maskUnits="userSpaceOnUse" x="56" y="65" width="168" height="190" fill="black">
<rect fill="white" x="56" y="65" width="168" height="190"/>
<path d="M176.445 158.104C185.6 160.25 192.682 164.685 197.689 171.409C202.839 177.99 205.414 185.643 205.414 194.37C205.414 207.674 200.979 217.975 192.109 225.271C183.383 232.424 170.794 236 154.342 236H74.7294V84.0712H152.196C167.646 84.0712 179.806 87.4331 188.676 94.1568C197.546 100.881 201.981 110.68 201.981 123.555C201.981 132.425 199.62 139.936 194.899 146.087C190.321 152.096 184.17 156.101 176.445 158.104ZM122.368 143.298H140.823C145.115 143.298 148.262 142.439 150.265 140.723C152.411 139.006 153.484 136.359 153.484 132.783C153.484 129.063 152.411 126.345 150.265 124.628C148.262 122.769 145.115 121.839 140.823 121.839H122.368V143.298ZM144.042 197.803C148.333 197.803 151.481 197.016 153.484 195.443C155.629 193.726 156.702 191.008 156.702 187.288C156.702 179.992 152.482 176.344 144.042 176.344H122.368V197.803H144.042Z"/>
</mask>
<path d="M176.445 158.104C185.6 160.25 192.682 164.685 197.689 171.409C202.839 177.99 205.414 185.643 205.414 194.37C205.414 207.674 200.979 217.975 192.109 225.271C183.383 232.424 170.794 236 154.342 236H74.7294V84.0712H152.196C167.646 84.0712 179.806 87.4331 188.676 94.1568C197.546 100.881 201.981 110.68 201.981 123.555C201.981 132.425 199.62 139.936 194.899 146.087C190.321 152.096 184.17 156.101 176.445 158.104ZM122.368 143.298H140.823C145.115 143.298 148.262 142.439 150.265 140.723C152.411 139.006 153.484 136.359 153.484 132.783C153.484 129.063 152.411 126.345 150.265 124.628C148.262 122.769 145.115 121.839 140.823 121.839H122.368V143.298ZM144.042 197.803C148.333 197.803 151.481 197.016 153.484 195.443C155.629 193.726 156.702 191.008 156.702 187.288C156.702 179.992 152.482 176.344 144.042 176.344H122.368V197.803H144.042Z" fill="#DC2626"/>
<path d="M176.445 158.104L171.819 140.264C163.613 142.392 157.916 149.843 158.016 158.32C158.115 166.798 163.985 174.113 172.239 176.048L176.445 158.104ZM197.689 171.409L182.907 182.416C182.995 182.534 183.084 182.651 183.175 182.767L197.689 171.409ZM192.109 225.271L203.793 239.524C203.801 239.517 203.809 239.511 203.818 239.504L192.109 225.271ZM74.7294 236H56.2994C56.2994 246.179 64.5508 254.43 74.7294 254.43V236ZM74.7294 84.0712V65.6412C64.5508 65.6412 56.2994 73.8926 56.2994 84.0712H74.7294ZM194.899 146.087L180.278 134.867C180.265 134.884 180.252 134.901 180.239 134.918L194.899 146.087ZM122.368 143.298H103.938C103.938 153.476 112.19 161.728 122.368 161.728V143.298ZM150.265 140.723L138.752 126.331C138.589 126.461 138.429 126.594 138.271 126.73L150.265 140.723ZM150.265 124.628L137.724 138.134C138.056 138.442 138.398 138.737 138.752 139.02L150.265 124.628ZM122.368 121.839V103.409C112.19 103.409 103.938 111.66 103.938 121.839H122.368ZM153.484 195.443L164.87 209.935C164.912 209.901 164.955 209.868 164.997 209.834L153.484 195.443ZM122.368 176.344V157.914C112.19 157.914 103.938 166.166 103.938 176.344H122.368ZM122.368 197.803H103.938C103.938 207.982 112.19 216.233 122.368 216.233V197.803ZM172.239 176.048C177.711 177.33 180.815 179.607 182.907 182.416L212.47 160.401C204.548 149.763 193.49 143.17 180.65 140.161L172.239 176.048ZM183.175 182.767C185.669 185.954 186.984 189.564 186.984 194.37H223.844C223.844 181.722 220.009 170.025 212.203 160.05L183.175 182.767ZM186.984 194.37C186.984 203.14 184.315 207.818 180.401 211.037L203.818 239.504C217.644 228.131 223.844 212.209 223.844 194.37H186.984ZM180.426 211.017C176.211 214.472 168.429 217.57 154.342 217.57V254.43C173.158 254.43 190.555 250.375 203.793 239.524L180.426 211.017ZM154.342 217.57H74.7294V254.43H154.342V217.57ZM93.1594 236V84.0712H56.2994V236H93.1594ZM74.7294 102.501H152.196V65.6412H74.7294V102.501ZM152.196 102.501C165.156 102.501 172.912 105.334 177.542 108.844L199.81 79.4699C186.701 69.5324 170.137 65.6412 152.196 65.6412V102.501ZM177.542 108.844C181.055 111.507 183.551 115.421 183.551 123.555H220.411C220.411 105.939 214.036 90.2545 199.81 79.4699L177.542 108.844ZM183.551 123.555C183.551 128.978 182.181 132.387 180.278 134.867L209.52 157.308C217.059 147.484 220.411 135.872 220.411 123.555H183.551ZM180.239 134.918C178.312 137.447 175.789 139.235 171.819 140.264L181.07 175.944C192.55 172.968 202.33 166.744 209.559 157.257L180.239 134.918ZM122.368 161.728H140.823V124.868H122.368V161.728ZM140.823 161.728C146.935 161.728 155.374 160.617 162.259 154.716L138.271 126.73C139.772 125.443 141.102 124.996 141.553 124.873C141.966 124.761 141.814 124.868 140.823 124.868V161.728ZM161.778 155.114C169.546 148.9 171.914 140.133 171.914 132.783H135.054C135.054 132.775 135.05 131.881 135.599 130.526C136.2 129.044 137.262 127.523 138.752 126.331L161.778 155.114ZM171.914 132.783C171.914 125.575 169.714 116.586 161.778 110.237L138.752 139.02C137.156 137.743 136.102 136.155 135.536 134.721C135.025 133.427 135.054 132.634 135.054 132.783H171.914ZM162.805 111.123C155.9 104.711 147.221 103.409 140.823 103.409V140.269C141.711 140.269 141.73 140.374 141.18 140.211C140.567 140.03 139.185 139.491 137.724 138.134L162.805 111.123ZM140.823 103.409H122.368V140.269H140.823V103.409ZM103.938 121.839V143.298H140.798V121.839H103.938ZM144.042 216.233C149.887 216.233 158.052 215.292 164.87 209.935L142.097 180.951C143.614 179.759 144.871 179.403 145.151 179.333C145.422 179.266 145.134 179.373 144.042 179.373V216.233ZM164.997 209.834C172.932 203.486 175.132 194.496 175.132 187.288H138.272C138.272 187.437 138.244 186.645 138.755 185.35C139.321 183.916 140.374 182.328 141.97 181.051L164.997 209.834ZM175.132 187.288C175.132 180.043 172.912 171.467 165.59 165.137C158.781 159.252 150.498 157.914 144.042 157.914V194.774C146.026 194.774 144.073 195.261 141.485 193.023C140.133 191.855 139.218 190.436 138.715 189.131C138.255 187.937 138.272 187.198 138.272 187.288H175.132ZM144.042 157.914H122.368V194.774H144.042V157.914ZM103.938 176.344V197.803H140.798V176.344H103.938ZM122.368 216.233H144.042V179.373H122.368V216.233Z" fill="white" mask="url(#path-2-outside-1_23_2)"/>
</svg>
